<mxfile host="app.diagrams.net" agent="Mozilla/5.0 (Macintosh; Intel Mac OS X 10_15_7) AppleWebKit/537.36 (KHTML, like Gecko) Chrome/133.0.0.0 Safari/537.36" version="26.0.16">
  <diagram name="第 1 页" id="RJeMv567_eEAaHuGsJ60">
    <mxGraphModel dx="2086" dy="1793" grid="1" gridSize="10" guides="1" tooltips="1" connect="1" arrows="1" fold="1" page="1" pageScale="1" pageWidth="827" pageHeight="1169" math="0" shadow="0">
      <root>
        <mxCell id="0" />
        <mxCell id="1" parent="0" />
        <mxCell id="TOQ0E0d8XNPn2ltGTNqP-72" value="" style="rounded=0;whiteSpace=wrap;html=1;fillColor=default;strokeColor=none;" vertex="1" parent="1">
          <mxGeometry x="-230" y="290" width="1240" height="740" as="geometry" />
        </mxCell>
        <mxCell id="TOQ0E0d8XNPn2ltGTNqP-58" value="" style="rounded=1;whiteSpace=wrap;html=1;fillColor=none;dashed=1;dashPattern=12 12;fontStyle=1;strokeWidth=2;glass=0;shadow=0;strokeColor=light-dark(#9E9E9E,#EDEDED);" vertex="1" parent="1">
          <mxGeometry x="-190" y="390" width="1150" height="100" as="geometry" />
        </mxCell>
        <mxCell id="TOQ0E0d8XNPn2ltGTNqP-63" value="" style="rounded=1;whiteSpace=wrap;html=1;fillColor=none;dashed=1;dashPattern=12 12;fontStyle=1;strokeWidth=2;glass=0;shadow=0;strokeColor=#ABABAB;" vertex="1" parent="1">
          <mxGeometry x="-190" y="500" width="1150" height="300" as="geometry" />
        </mxCell>
        <mxCell id="TOQ0E0d8XNPn2ltGTNqP-68" value="" style="rounded=1;whiteSpace=wrap;html=1;fillColor=none;dashed=1;dashPattern=12 12;fontStyle=1;strokeWidth=2;glass=0;shadow=0;strokeColor=#9E9E9E;" vertex="1" parent="1">
          <mxGeometry x="-190" y="830" width="1150" height="130" as="geometry" />
        </mxCell>
        <mxCell id="TOQ0E0d8XNPn2ltGTNqP-2" style="edgeStyle=orthogonalEdgeStyle;rounded=0;orthogonalLoop=1;jettySize=auto;html=1;entryX=0.5;entryY=0;entryDx=0;entryDy=0;fontStyle=1" edge="1" parent="1" source="TOQ0E0d8XNPn2ltGTNqP-1" target="TOQ0E0d8XNPn2ltGTNqP-3">
          <mxGeometry relative="1" as="geometry">
            <mxPoint x="370" y="440" as="targetPoint" />
          </mxGeometry>
        </mxCell>
        <mxCell id="TOQ0E0d8XNPn2ltGTNqP-60" style="edgeStyle=orthogonalEdgeStyle;rounded=0;orthogonalLoop=1;jettySize=auto;html=1;entryX=0.5;entryY=0;entryDx=0;entryDy=0;fontStyle=1" edge="1" parent="1" source="TOQ0E0d8XNPn2ltGTNqP-1" target="TOQ0E0d8XNPn2ltGTNqP-4">
          <mxGeometry relative="1" as="geometry" />
        </mxCell>
        <mxCell id="TOQ0E0d8XNPn2ltGTNqP-1" value="Business Research" style="rounded=0;whiteSpace=wrap;html=1;fontStyle=1" vertex="1" parent="1">
          <mxGeometry x="290" y="420" width="160" height="50" as="geometry" />
        </mxCell>
        <mxCell id="TOQ0E0d8XNPn2ltGTNqP-6" style="edgeStyle=orthogonalEdgeStyle;rounded=0;orthogonalLoop=1;jettySize=auto;html=1;entryX=0.5;entryY=0;entryDx=0;entryDy=0;fontStyle=1" edge="1" parent="1" source="TOQ0E0d8XNPn2ltGTNqP-3" target="TOQ0E0d8XNPn2ltGTNqP-5">
          <mxGeometry relative="1" as="geometry" />
        </mxCell>
        <mxCell id="TOQ0E0d8XNPn2ltGTNqP-3" value="Data Ingestion to DWH" style="rounded=0;whiteSpace=wrap;html=1;fillColor=#dae8fc;strokeColor=#6c8ebf;fontStyle=1" vertex="1" parent="1">
          <mxGeometry x="-165" y="660" width="160" height="40" as="geometry" />
        </mxCell>
        <mxCell id="TOQ0E0d8XNPn2ltGTNqP-9" style="edgeStyle=orthogonalEdgeStyle;rounded=0;orthogonalLoop=1;jettySize=auto;html=1;entryX=0.5;entryY=0;entryDx=0;entryDy=0;fontStyle=1" edge="1" parent="1" source="TOQ0E0d8XNPn2ltGTNqP-4" target="TOQ0E0d8XNPn2ltGTNqP-7">
          <mxGeometry relative="1" as="geometry" />
        </mxCell>
        <mxCell id="TOQ0E0d8XNPn2ltGTNqP-56" value="analyze" style="edgeLabel;html=1;align=center;verticalAlign=middle;resizable=0;points=[];fontStyle=1" vertex="1" connectable="0" parent="TOQ0E0d8XNPn2ltGTNqP-9">
          <mxGeometry x="-0.4544" relative="1" as="geometry">
            <mxPoint as="offset" />
          </mxGeometry>
        </mxCell>
        <mxCell id="TOQ0E0d8XNPn2ltGTNqP-34" style="edgeStyle=orthogonalEdgeStyle;rounded=0;orthogonalLoop=1;jettySize=auto;html=1;entryX=0.5;entryY=0;entryDx=0;entryDy=0;fontStyle=1" edge="1" parent="1" source="TOQ0E0d8XNPn2ltGTNqP-4" target="TOQ0E0d8XNPn2ltGTNqP-33">
          <mxGeometry relative="1" as="geometry" />
        </mxCell>
        <mxCell id="TOQ0E0d8XNPn2ltGTNqP-55" value="analyze" style="edgeLabel;html=1;align=center;verticalAlign=middle;resizable=0;points=[];fontStyle=1" vertex="1" connectable="0" parent="TOQ0E0d8XNPn2ltGTNqP-34">
          <mxGeometry x="-0.3631" y="-1" relative="1" as="geometry">
            <mxPoint as="offset" />
          </mxGeometry>
        </mxCell>
        <mxCell id="TOQ0E0d8XNPn2ltGTNqP-4" value="Data Theme Domain" style="rounded=0;whiteSpace=wrap;html=1;fontStyle=1" vertex="1" parent="1">
          <mxGeometry x="290" y="520" width="160" height="50" as="geometry" />
        </mxCell>
        <mxCell id="TOQ0E0d8XNPn2ltGTNqP-25" style="edgeStyle=orthogonalEdgeStyle;rounded=0;orthogonalLoop=1;jettySize=auto;html=1;entryX=0;entryY=0.5;entryDx=0;entryDy=0;fontStyle=1" edge="1" parent="1" source="TOQ0E0d8XNPn2ltGTNqP-5" target="TOQ0E0d8XNPn2ltGTNqP-24">
          <mxGeometry relative="1" as="geometry" />
        </mxCell>
        <mxCell id="TOQ0E0d8XNPn2ltGTNqP-53" value="data&lt;div&gt;cleaning&lt;/div&gt;" style="edgeLabel;html=1;align=center;verticalAlign=middle;resizable=0;points=[];fontStyle=1" vertex="1" connectable="0" parent="TOQ0E0d8XNPn2ltGTNqP-25">
          <mxGeometry x="0.081" relative="1" as="geometry">
            <mxPoint as="offset" />
          </mxGeometry>
        </mxCell>
        <mxCell id="TOQ0E0d8XNPn2ltGTNqP-5" value="ODS" style="rounded=0;whiteSpace=wrap;html=1;fillColor=#dae8fc;strokeColor=#6c8ebf;fontStyle=1" vertex="1" parent="1">
          <mxGeometry x="-130" y="850" width="90" height="40" as="geometry" />
        </mxCell>
        <mxCell id="TOQ0E0d8XNPn2ltGTNqP-11" style="edgeStyle=orthogonalEdgeStyle;rounded=0;orthogonalLoop=1;jettySize=auto;html=1;entryX=0.5;entryY=0;entryDx=0;entryDy=0;fontStyle=1" edge="1" parent="1" source="TOQ0E0d8XNPn2ltGTNqP-7" target="TOQ0E0d8XNPn2ltGTNqP-10">
          <mxGeometry relative="1" as="geometry" />
        </mxCell>
        <mxCell id="TOQ0E0d8XNPn2ltGTNqP-7" value="Dimension" style="rounded=0;whiteSpace=wrap;html=1;fillColor=#e1d5e7;strokeColor=#9673a6;fontStyle=1" vertex="1" parent="1">
          <mxGeometry x="130" y="620" width="120" height="40" as="geometry" />
        </mxCell>
        <mxCell id="TOQ0E0d8XNPn2ltGTNqP-8" value="&lt;span&gt;Business Procedure (CORE)&lt;/span&gt;" style="rounded=0;whiteSpace=wrap;html=1;fillColor=#f8cecc;strokeColor=#b85450;fontStyle=1" vertex="1" parent="1">
          <mxGeometry x="280" y="620" width="200" height="40" as="geometry" />
        </mxCell>
        <mxCell id="TOQ0E0d8XNPn2ltGTNqP-10" value="Dimension&lt;div&gt;Attributes&lt;/div&gt;" style="rounded=0;whiteSpace=wrap;html=1;fillColor=#e1d5e7;strokeColor=#9673a6;fontStyle=1" vertex="1" parent="1">
          <mxGeometry x="130" y="690" width="120" height="40" as="geometry" />
        </mxCell>
        <mxCell id="TOQ0E0d8XNPn2ltGTNqP-38" style="edgeStyle=orthogonalEdgeStyle;rounded=0;orthogonalLoop=1;jettySize=auto;html=1;entryX=0.165;entryY=-0.05;entryDx=0;entryDy=0;entryPerimeter=0;fontStyle=1" edge="1" parent="1" source="TOQ0E0d8XNPn2ltGTNqP-12" target="TOQ0E0d8XNPn2ltGTNqP-32">
          <mxGeometry relative="1" as="geometry">
            <mxPoint x="555" y="720" as="targetPoint" />
            <Array as="points" />
          </mxGeometry>
        </mxCell>
        <mxCell id="TOQ0E0d8XNPn2ltGTNqP-45" value="&lt;span style=&quot;font-size: 12px; text-wrap-mode: wrap; background-color: rgb(251, 251, 251);&quot;&gt;determine&lt;/span&gt;" style="edgeLabel;html=1;align=center;verticalAlign=middle;resizable=0;points=[];fontStyle=1" vertex="1" connectable="0" parent="TOQ0E0d8XNPn2ltGTNqP-38">
          <mxGeometry x="-0.222" relative="1" as="geometry">
            <mxPoint as="offset" />
          </mxGeometry>
        </mxCell>
        <mxCell id="TOQ0E0d8XNPn2ltGTNqP-12" value="raw metrics" style="rounded=0;whiteSpace=wrap;html=1;fontStyle=1" vertex="1" parent="1">
          <mxGeometry x="510" y="670" width="90" height="40" as="geometry" />
        </mxCell>
        <mxCell id="TOQ0E0d8XNPn2ltGTNqP-13" value="facts" style="rounded=0;whiteSpace=wrap;html=1;fillColor=#d5e8d4;strokeColor=#82b366;fontStyle=1" vertex="1" parent="1">
          <mxGeometry x="280" y="690" width="80" height="40" as="geometry" />
        </mxCell>
        <mxCell id="TOQ0E0d8XNPn2ltGTNqP-14" value="" style="endArrow=classic;html=1;rounded=0;entryX=0.5;entryY=0;entryDx=0;entryDy=0;exitX=0.198;exitY=0.962;exitDx=0;exitDy=0;exitPerimeter=0;fontStyle=1" edge="1" parent="1" source="TOQ0E0d8XNPn2ltGTNqP-8" target="TOQ0E0d8XNPn2ltGTNqP-13">
          <mxGeometry width="50" height="50" relative="1" as="geometry">
            <mxPoint x="320" y="680" as="sourcePoint" />
            <mxPoint x="370" y="630" as="targetPoint" />
            <Array as="points" />
          </mxGeometry>
        </mxCell>
        <mxCell id="TOQ0E0d8XNPn2ltGTNqP-57" value="analyze" style="edgeLabel;html=1;align=center;verticalAlign=middle;resizable=0;points=[];fontStyle=1" vertex="1" connectable="0" parent="TOQ0E0d8XNPn2ltGTNqP-14">
          <mxGeometry x="-0.359" y="-3" relative="1" as="geometry">
            <mxPoint as="offset" />
          </mxGeometry>
        </mxCell>
        <mxCell id="TOQ0E0d8XNPn2ltGTNqP-15" value="" style="endArrow=classic;html=1;rounded=0;entryX=0.5;entryY=0;entryDx=0;entryDy=0;exitX=1;exitY=0.5;exitDx=0;exitDy=0;fontStyle=1" edge="1" parent="1" source="TOQ0E0d8XNPn2ltGTNqP-8" target="TOQ0E0d8XNPn2ltGTNqP-12">
          <mxGeometry width="50" height="50" relative="1" as="geometry">
            <mxPoint x="440" y="680" as="sourcePoint" />
            <mxPoint x="330" y="720" as="targetPoint" />
            <Array as="points">
              <mxPoint x="555" y="640" />
            </Array>
          </mxGeometry>
        </mxCell>
        <mxCell id="TOQ0E0d8XNPn2ltGTNqP-43" value="analyze" style="edgeLabel;html=1;align=center;verticalAlign=middle;resizable=0;points=[];fontStyle=1" vertex="1" connectable="0" parent="TOQ0E0d8XNPn2ltGTNqP-15">
          <mxGeometry x="-0.309" y="1" relative="1" as="geometry">
            <mxPoint as="offset" />
          </mxGeometry>
        </mxCell>
        <mxCell id="TOQ0E0d8XNPn2ltGTNqP-17" style="edgeStyle=orthogonalEdgeStyle;rounded=0;orthogonalLoop=1;jettySize=auto;html=1;entryX=0.448;entryY=-0.022;entryDx=0;entryDy=0;entryPerimeter=0;fontStyle=1" edge="1" parent="1" source="TOQ0E0d8XNPn2ltGTNqP-4" target="TOQ0E0d8XNPn2ltGTNqP-8">
          <mxGeometry relative="1" as="geometry" />
        </mxCell>
        <mxCell id="TOQ0E0d8XNPn2ltGTNqP-18" value="Data Bus Matrix" style="rounded=0;whiteSpace=wrap;html=1;fillColor=#d5e8d4;strokeColor=#82b366;fontStyle=1" vertex="1" parent="1">
          <mxGeometry x="130" y="750" width="230" height="40" as="geometry" />
        </mxCell>
        <mxCell id="TOQ0E0d8XNPn2ltGTNqP-20" style="edgeStyle=orthogonalEdgeStyle;rounded=0;orthogonalLoop=1;jettySize=auto;html=1;fontStyle=1" edge="1" parent="1" source="TOQ0E0d8XNPn2ltGTNqP-13">
          <mxGeometry relative="1" as="geometry">
            <mxPoint x="320" y="750" as="targetPoint" />
          </mxGeometry>
        </mxCell>
        <mxCell id="TOQ0E0d8XNPn2ltGTNqP-21" style="edgeStyle=orthogonalEdgeStyle;rounded=0;orthogonalLoop=1;jettySize=auto;html=1;entryX=0.261;entryY=0;entryDx=0;entryDy=0;entryPerimeter=0;fontStyle=1" edge="1" parent="1" source="TOQ0E0d8XNPn2ltGTNqP-10" target="TOQ0E0d8XNPn2ltGTNqP-18">
          <mxGeometry relative="1" as="geometry" />
        </mxCell>
        <mxCell id="TOQ0E0d8XNPn2ltGTNqP-50" style="edgeStyle=orthogonalEdgeStyle;rounded=0;orthogonalLoop=1;jettySize=auto;html=1;entryX=0;entryY=0.5;entryDx=0;entryDy=0;fontStyle=1" edge="1" parent="1" source="TOQ0E0d8XNPn2ltGTNqP-22" target="TOQ0E0d8XNPn2ltGTNqP-27">
          <mxGeometry relative="1" as="geometry" />
        </mxCell>
        <mxCell id="TOQ0E0d8XNPn2ltGTNqP-22" value="DWM (Middle)&lt;br&gt;(original granularity)" style="rounded=0;whiteSpace=wrap;html=1;fillColor=#d5e8d4;strokeColor=#82b366;fontStyle=1" vertex="1" parent="1">
          <mxGeometry x="200" y="850" width="120" height="40" as="geometry" />
        </mxCell>
        <mxCell id="TOQ0E0d8XNPn2ltGTNqP-23" value="DIM" style="rounded=0;whiteSpace=wrap;html=1;fillColor=#e1d5e7;strokeColor=#9673a6;fontStyle=1" vertex="1" parent="1">
          <mxGeometry x="160" y="910" width="550" height="30" as="geometry" />
        </mxCell>
        <mxCell id="TOQ0E0d8XNPn2ltGTNqP-26" style="edgeStyle=orthogonalEdgeStyle;rounded=0;orthogonalLoop=1;jettySize=auto;html=1;entryX=0;entryY=0.5;entryDx=0;entryDy=0;fontStyle=1" edge="1" parent="1" source="TOQ0E0d8XNPn2ltGTNqP-24" target="TOQ0E0d8XNPn2ltGTNqP-22">
          <mxGeometry relative="1" as="geometry" />
        </mxCell>
        <mxCell id="TOQ0E0d8XNPn2ltGTNqP-24" value="DWD (detail)" style="rounded=0;whiteSpace=wrap;html=1;fillColor=#dae8fc;strokeColor=#6c8ebf;fontStyle=1" vertex="1" parent="1">
          <mxGeometry x="30" y="850" width="100" height="40" as="geometry" />
        </mxCell>
        <mxCell id="TOQ0E0d8XNPn2ltGTNqP-51" style="edgeStyle=orthogonalEdgeStyle;rounded=0;orthogonalLoop=1;jettySize=auto;html=1;entryX=0;entryY=0.5;entryDx=0;entryDy=0;fontStyle=1" edge="1" parent="1" source="TOQ0E0d8XNPn2ltGTNqP-27" target="TOQ0E0d8XNPn2ltGTNqP-31">
          <mxGeometry relative="1" as="geometry" />
        </mxCell>
        <mxCell id="TOQ0E0d8XNPn2ltGTNqP-27" value="DWS (summary wide table)&lt;div&gt;(slightly aggregate)&lt;/div&gt;" style="rounded=0;whiteSpace=wrap;html=1;fillColor=#ffe6cc;strokeColor=#d79b00;fontStyle=1" vertex="1" parent="1">
          <mxGeometry x="360" y="850" width="170" height="40" as="geometry" />
        </mxCell>
        <mxCell id="TOQ0E0d8XNPn2ltGTNqP-28" style="edgeStyle=orthogonalEdgeStyle;rounded=0;orthogonalLoop=1;jettySize=auto;html=1;fontStyle=1" edge="1" parent="1" source="TOQ0E0d8XNPn2ltGTNqP-18">
          <mxGeometry relative="1" as="geometry">
            <mxPoint x="180" y="910" as="targetPoint" />
            <Array as="points">
              <mxPoint x="180" y="850" />
              <mxPoint x="180" y="850" />
            </Array>
          </mxGeometry>
        </mxCell>
        <mxCell id="TOQ0E0d8XNPn2ltGTNqP-62" style="edgeStyle=orthogonalEdgeStyle;rounded=0;orthogonalLoop=1;jettySize=auto;html=1;fontStyle=1" edge="1" parent="1" source="TOQ0E0d8XNPn2ltGTNqP-31" target="TOQ0E0d8XNPn2ltGTNqP-61">
          <mxGeometry relative="1" as="geometry" />
        </mxCell>
        <mxCell id="TOQ0E0d8XNPn2ltGTNqP-31" value="DWT (Theme)&lt;br&gt;(accumulate aggregate)" style="rounded=0;whiteSpace=wrap;html=1;fillColor=#ffe6cc;strokeColor=#d79b00;fontStyle=1" vertex="1" parent="1">
          <mxGeometry x="570" y="850" width="140" height="40" as="geometry" />
        </mxCell>
        <mxCell id="TOQ0E0d8XNPn2ltGTNqP-47" style="edgeStyle=orthogonalEdgeStyle;rounded=0;orthogonalLoop=1;jettySize=auto;html=1;entryX=0.5;entryY=0;entryDx=0;entryDy=0;fontStyle=1" edge="1" parent="1" source="TOQ0E0d8XNPn2ltGTNqP-32" target="TOQ0E0d8XNPn2ltGTNqP-27">
          <mxGeometry relative="1" as="geometry">
            <Array as="points">
              <mxPoint x="620" y="820" />
              <mxPoint x="445" y="820" />
            </Array>
          </mxGeometry>
        </mxCell>
        <mxCell id="TOQ0E0d8XNPn2ltGTNqP-32" value="derived metrics&lt;div&gt;(= raw metrics + time period + modifers)&lt;/div&gt;" style="rounded=0;whiteSpace=wrap;html=1;fillColor=#ffe6cc;strokeColor=#d79b00;fontStyle=1" vertex="1" parent="1">
          <mxGeometry x="510" y="750" width="270" height="40" as="geometry" />
        </mxCell>
        <mxCell id="TOQ0E0d8XNPn2ltGTNqP-33" value="modifiers" style="rounded=0;whiteSpace=wrap;html=1;fontStyle=1" vertex="1" parent="1">
          <mxGeometry x="590" y="585" width="120" height="50" as="geometry" />
        </mxCell>
        <mxCell id="TOQ0E0d8XNPn2ltGTNqP-35" style="edgeStyle=orthogonalEdgeStyle;rounded=0;orthogonalLoop=1;jettySize=auto;html=1;entryX=0.519;entryY=0.071;entryDx=0;entryDy=0;entryPerimeter=0;fontStyle=1" edge="1" parent="1" source="TOQ0E0d8XNPn2ltGTNqP-33" target="TOQ0E0d8XNPn2ltGTNqP-32">
          <mxGeometry relative="1" as="geometry" />
        </mxCell>
        <mxCell id="TOQ0E0d8XNPn2ltGTNqP-44" value="analyze" style="edgeLabel;html=1;align=center;verticalAlign=middle;resizable=0;points=[];fontStyle=1" vertex="1" connectable="0" parent="TOQ0E0d8XNPn2ltGTNqP-35">
          <mxGeometry x="-0.0177" relative="1" as="geometry">
            <mxPoint as="offset" />
          </mxGeometry>
        </mxCell>
        <mxCell id="TOQ0E0d8XNPn2ltGTNqP-37" style="edgeStyle=orthogonalEdgeStyle;rounded=0;orthogonalLoop=1;jettySize=auto;html=1;entryX=0.537;entryY=0.056;entryDx=0;entryDy=0;entryPerimeter=0;fontStyle=1" edge="1" parent="1" source="TOQ0E0d8XNPn2ltGTNqP-32" target="TOQ0E0d8XNPn2ltGTNqP-31">
          <mxGeometry relative="1" as="geometry" />
        </mxCell>
        <mxCell id="TOQ0E0d8XNPn2ltGTNqP-48" style="edgeStyle=orthogonalEdgeStyle;rounded=0;orthogonalLoop=1;jettySize=auto;html=1;entryX=0.25;entryY=0;entryDx=0;entryDy=0;fontStyle=1" edge="1" parent="1" source="TOQ0E0d8XNPn2ltGTNqP-39" target="TOQ0E0d8XNPn2ltGTNqP-31">
          <mxGeometry relative="1" as="geometry">
            <Array as="points">
              <mxPoint x="460" y="810" />
              <mxPoint x="605" y="810" />
            </Array>
          </mxGeometry>
        </mxCell>
        <mxCell id="TOQ0E0d8XNPn2ltGTNqP-39" value="granularity" style="rounded=0;whiteSpace=wrap;html=1;fillColor=#ffe6cc;strokeColor=#d79b00;fontStyle=1" vertex="1" parent="1">
          <mxGeometry x="390" y="750" width="90" height="40" as="geometry" />
        </mxCell>
        <mxCell id="TOQ0E0d8XNPn2ltGTNqP-40" value="" style="endArrow=classic;html=1;rounded=0;entryX=0.5;entryY=0;entryDx=0;entryDy=0;fontStyle=1" edge="1" parent="1" target="TOQ0E0d8XNPn2ltGTNqP-39">
          <mxGeometry width="50" height="50" relative="1" as="geometry">
            <mxPoint x="435" y="660" as="sourcePoint" />
            <mxPoint x="480" y="610" as="targetPoint" />
          </mxGeometry>
        </mxCell>
        <mxCell id="TOQ0E0d8XNPn2ltGTNqP-42" value="&lt;span style=&quot;font-size: 12px; text-wrap-mode: wrap; background-color: rgb(251, 251, 251);&quot;&gt;determine&lt;/span&gt;" style="edgeLabel;html=1;align=center;verticalAlign=middle;resizable=0;points=[];fontStyle=1" vertex="1" connectable="0" parent="TOQ0E0d8XNPn2ltGTNqP-40">
          <mxGeometry x="-0.0323" y="2" relative="1" as="geometry">
            <mxPoint as="offset" />
          </mxGeometry>
        </mxCell>
        <mxCell id="TOQ0E0d8XNPn2ltGTNqP-41" style="edgeStyle=orthogonalEdgeStyle;rounded=0;orthogonalLoop=1;jettySize=auto;html=1;entryX=0.366;entryY=-0.036;entryDx=0;entryDy=0;entryPerimeter=0;fontStyle=1" edge="1" parent="1" source="TOQ0E0d8XNPn2ltGTNqP-39" target="TOQ0E0d8XNPn2ltGTNqP-27">
          <mxGeometry relative="1" as="geometry">
            <Array as="points">
              <mxPoint x="422" y="810" />
              <mxPoint x="422" y="810" />
            </Array>
          </mxGeometry>
        </mxCell>
        <mxCell id="TOQ0E0d8XNPn2ltGTNqP-49" style="edgeStyle=orthogonalEdgeStyle;rounded=0;orthogonalLoop=1;jettySize=auto;html=1;entryX=0.369;entryY=0.094;entryDx=0;entryDy=0;entryPerimeter=0;fontStyle=1" edge="1" parent="1" source="TOQ0E0d8XNPn2ltGTNqP-18" target="TOQ0E0d8XNPn2ltGTNqP-22">
          <mxGeometry relative="1" as="geometry" />
        </mxCell>
        <mxCell id="TOQ0E0d8XNPn2ltGTNqP-61" value="ADS (Application Data Service)" style="rounded=0;whiteSpace=wrap;html=1;fontStyle=1" vertex="1" parent="1">
          <mxGeometry x="760" y="850" width="180" height="40" as="geometry" />
        </mxCell>
        <mxCell id="TOQ0E0d8XNPn2ltGTNqP-69" value="&lt;font style=&quot;font-size: 24px;&quot;&gt;&lt;b&gt;Business Section&lt;/b&gt;&lt;/font&gt;" style="text;html=1;align=center;verticalAlign=middle;whiteSpace=wrap;rounded=0;" vertex="1" parent="1">
          <mxGeometry x="680" y="430" width="250" height="30" as="geometry" />
        </mxCell>
        <mxCell id="TOQ0E0d8XNPn2ltGTNqP-70" value="&lt;font style=&quot;font-size: 24px;&quot;&gt;&lt;b&gt;Specification Definition&lt;/b&gt;&lt;/font&gt;" style="text;html=1;align=center;verticalAlign=middle;whiteSpace=wrap;rounded=0;" vertex="1" parent="1">
          <mxGeometry x="680" y="530" width="250" height="30" as="geometry" />
        </mxCell>
        <mxCell id="TOQ0E0d8XNPn2ltGTNqP-71" value="&lt;font style=&quot;font-size: 24px;&quot;&gt;&lt;b&gt;Modelling Design&lt;/b&gt;&lt;/font&gt;" style="text;html=1;align=center;verticalAlign=middle;whiteSpace=wrap;rounded=0;" vertex="1" parent="1">
          <mxGeometry x="710" y="910" width="250" height="30" as="geometry" />
        </mxCell>
        <mxCell id="TOQ0E0d8XNPn2ltGTNqP-73" value="" style="shape=image;html=1;verticalAlign=top;verticalLabelPosition=bottom;labelBackgroundColor=#ffffff;imageAspect=0;aspect=fixed;image=https://cdn0.iconfinder.com/data/icons/google-material-design-3-0/48/ic_copyright_48px-128.png" vertex="1" parent="1">
          <mxGeometry x="790" y="330" width="20" height="20" as="geometry" />
        </mxCell>
        <mxCell id="TOQ0E0d8XNPn2ltGTNqP-74" value="&amp;nbsp; &amp;nbsp;Smars Hu, Trent University" style="text;html=1;align=center;verticalAlign=middle;whiteSpace=wrap;rounded=0;" vertex="1" parent="1">
          <mxGeometry x="800" y="325" width="160" height="30" as="geometry" />
        </mxCell>
        <mxCell id="TOQ0E0d8XNPn2ltGTNqP-75" value="&lt;font style=&quot;font-size: 24px;&quot;&gt;&lt;b&gt;Dimension Modelling&lt;/b&gt;&lt;/font&gt;" style="text;html=1;align=center;verticalAlign=middle;whiteSpace=wrap;rounded=0;" vertex="1" parent="1">
          <mxGeometry x="245" y="330" width="250" height="30" as="geometry" />
        </mxCell>
      </root>
    </mxGraphModel>
  </diagram>
</mxfile>
